<?xml version="1.0" ?><svg height="200" version="1.1" viewBox="0 0 20 20" width="200" xmlns="http://www.w3.org/2000/svg"><g id="layer1"><path d="M 0 0 L 0 5 L 5 5 L 5 0 L 0 0 z M 6 0 L 6 2 L 8 2 L 8 1 L 7 1 L 7 0 L 6 0 z M 9 0 L 9 2 L 10 2 L 10 0 L 9 0 z M 11 0 L 11 1 L 12 1 L 12 3 L 13 3 L 13 2 L 14 2 L 14 1 L 13 1 L 13 0 L 11 0 z M 13 3 L 13 4 L 12 4 L 12 3 L 11 3 L 11 4 L 10 4 L 10 5 L 11 5 L 11 6 L 12 6 L 12 5 L 14 5 L 14 3 L 13 3 z M 12 6 L 12 8 L 13 8 L 13 6 L 12 6 z M 12 8 L 10 8 L 10 5 L 9 5 L 9 6 L 8 6 L 8 7 L 9 7 L 9 9 L 12 9 L 12 8 z M 12 9 L 12 10 L 13 10 L 13 11 L 14 11 L 14 10 L 15 10 L 15 8 L 16 8 L 16 7 L 18 7 L 18 6 L 15 6 L 15 7 L 14 7 L 14 9 L 12 9 z M 18 7 L 18 8 L 19 8 L 19 10 L 20 10 L 20 7 L 20 6 L 19 6 L 19 7 L 18 7 z M 19 10 L 18 10 L 18 9 L 17 9 L 17 10 L 15 10 L 15 11 L 18 11 L 18 13 L 19 13 L 19 12 L 20 12 L 20 11 L 19 11 L 19 10 z M 19 13 L 19 14 L 20 14 L 20 13 L 19 13 z M 19 14 L 18 14 L 18 15 L 19 15 L 19 14 z M 18 14 L 18 13 L 17 13 L 17 14 L 18 14 z M 17 14 L 15 14 L 15 15 L 16 15 L 16 17 L 17 17 L 17 14 z M 17 17 L 17 18 L 18 18 L 18 17 L 17 17 z M 18 17 L 20 17 L 20 16 L 18 16 L 18 17 z M 17 18 L 16 18 L 16 17 L 15 17 L 15 20 L 16 20 L 16 19 L 17 19 L 17 18 z M 17 19 L 17 20 L 20 20 L 20 18 L 19 18 L 19 19 L 17 19 z M 15 17 L 15 16 L 14 16 L 14 17 L 15 17 z M 14 16 L 14 15 L 13 15 L 13 13 L 12 13 L 12 14 L 11 14 L 11 13 L 9 13 L 9 14 L 10 14 L 10 15 L 12 15 L 12 17 L 11 17 L 11 18 L 12 18 L 12 19 L 13 19 L 13 20 L 14 20 L 14 18 L 13 18 L 13 16 L 14 16 z M 11 17 L 11 16 L 10 16 L 10 17 L 11 17 z M 10 17 L 9 17 L 9 16 L 8 16 L 8 17 L 7 17 L 7 18 L 8 18 L 8 19 L 7 19 L 7 18 L 6 18 L 6 20 L 11 20 L 11 19 L 9 19 L 9 18 L 10 18 L 10 17 z M 7 17 L 7 15 L 9 15 L 9 14 L 7 14 L 7 13 L 5 13 L 5 14 L 6 14 L 6 17 L 7 17 z M 5 13 L 5 12 L 7 12 L 7 13 L 8 13 L 8 12 L 9 12 L 9 11 L 7 11 L 7 9 L 6 9 L 6 11 L 5 11 L 5 10 L 4 10 L 4 11 L 3 11 L 3 12 L 4 12 L 4 13 L 5 13 z M 4 10 L 4 9 L 3 9 L 3 10 L 4 10 z M 4 9 L 5 9 L 5 8 L 6 8 L 6 7 L 4 7 L 4 6 L 3 6 L 3 7 L 1 7 L 1 6 L 0 6 L 0 8 L 4 8 L 4 9 z M 7 9 L 8 9 L 8 7 L 7 7 L 7 9 z M 8 9 L 8 10 L 9 10 L 9 9 L 8 9 z M 9 10 L 9 11 L 10 11 L 10 12 L 11 12 L 11 13 L 12 13 L 12 12 L 12 11 L 11 11 L 11 10 L 9 10 z M 13 13 L 14 13 L 14 14 L 15 14 L 15 13 L 17 13 L 17 12 L 15 12 L 15 11 L 14 11 L 14 12 L 13 12 L 13 13 z M 17 9 L 17 8 L 16 8 L 16 9 L 17 9 z M 10 4 L 10 3 L 7 3 L 7 4 L 6 4 L 6 6 L 7 6 L 7 5 L 8 5 L 8 4 L 10 4 z M 15 0 L 15 5 L 20 5 L 20 0 L 15 0 z M 1 1 L 4 1 L 4 4 L 1 4 L 1 1 z M 16 1 L 19 1 L 19 4 L 16 4 L 16 1 z M 2 2 L 2 3 L 3 3 L 3 2 L 2 2 z M 17 2 L 17 3 L 18 3 L 18 2 L 17 2 z M 0 9 L 0 11 L 1 11 L 1 10 L 2 10 L 2 9 L 0 9 z M 1 11 L 1 13 L 0 13 L 0 14 L 3 14 L 3 13 L 2 13 L 2 11 L 1 11 z M 0 15 L 0 20 L 5 20 L 5 15 L 0 15 z M 1 16 L 4 16 L 4 19 L 1 19 L 1 16 z M 2 17 L 2 18 L 3 18 L 3 17 L 2 17 z " style="fill:#222222; fill-opacity:1; stroke:none; stroke-width:0px;"/></g></svg>